<svg width="196" height="40" viewBox="0 0 196 40" fill="none" xmlns="http://www.w3.org/2000/svg">
<path d="M15.5572 12.381H8.05156V8.88889H27.2686V12.381H19.7629V31.1111H15.5572V12.381Z" fill="white" fill-opacity="0.8"/>
<path d="M45.2421 31.1111L40.6158 24.6032C40.4217 24.6243 40.1305 24.6349 39.7423 24.6349H34.6307V31.1111H30.4249V8.88889H39.7423C41.705 8.88889 43.4088 9.20635 44.8539 9.84127C46.3205 10.4762 47.442 11.3862 48.2185 12.5714C48.9949 13.7566 49.3831 15.164 49.3831 16.7937C49.3831 18.4656 48.9626 19.9048 48.1214 21.1111C47.3018 22.3175 46.1156 23.2169 44.5627 23.8095L49.7714 31.1111H45.2421ZM45.145 16.7937C45.145 15.3757 44.6705 14.2857 43.7216 13.5238C42.7726 12.7619 41.3814 12.381 39.5482 12.381H34.6307V21.2381H39.5482C41.3814 21.2381 42.7726 20.8571 43.7216 20.0952C44.6705 19.3122 45.145 18.2116 45.145 16.7937Z" fill="white" fill-opacity="0.8"/>
<path d="M68.7763 25.9683H57.4532L55.2209 31.1111H50.8857L61.0766 8.88889H65.2176L75.4408 31.1111H71.041L68.7763 25.9683ZM67.3852 22.7302L63.1148 13.0159L58.8767 22.7302H67.3852Z" fill="white" fill-opacity="0.8"/>
<path d="M78.3209 8.88889H82.5267V31.1111H78.3209V8.88889Z" fill="white" fill-opacity="0.8"/>
<path d="M108.775 8.88889V31.1111H105.313L92.8254 16.0635V31.1111H88.652V8.88889H92.1137L104.602 23.9365V8.88889H108.775Z" fill="white" fill-opacity="0.8"/>
<path d="M137.075 31.111C134.767 31.111 132.685 30.6312 130.831 29.6716C128.976 28.6912 127.52 27.3456 126.463 25.635C125.406 23.9036 124.878 21.9739 124.878 19.8461C124.878 17.7183 125.406 15.7991 126.463 14.0885C127.52 12.357 128.976 11.0115 130.831 10.0519C132.685 9.0714 134.767 8.58116 137.075 8.58116C139.382 8.58116 141.464 9.0714 143.318 10.0519C145.173 11.0115 146.629 12.3466 147.686 14.0572C148.743 15.7678 149.271 17.6974 149.271 19.8461C149.271 21.9948 148.743 23.9244 147.686 25.635C146.629 27.3456 145.173 28.6912 143.318 29.6716C141.464 30.6312 139.382 31.111 137.075 31.111ZM137.075 27.5438C138.584 27.5438 139.943 27.2205 141.151 26.5738C142.359 25.9062 143.308 24.9883 143.998 23.8201C144.688 22.631 145.033 21.3064 145.033 19.8461C145.033 18.3858 144.688 17.0716 143.998 15.9034C143.308 14.7143 142.359 13.7964 141.151 13.1497C139.943 12.4822 138.584 12.1484 137.075 12.1484C135.565 12.1484 134.206 12.4822 132.998 13.1497C131.79 13.7964 130.841 14.7143 130.151 15.9034C129.461 17.0716 129.116 18.3858 129.116 19.8461C129.116 21.3064 129.461 22.631 130.151 23.8201C130.841 24.9883 131.79 25.9062 132.998 26.5738C134.206 27.2205 135.565 27.5438 137.075 27.5438Z" fill="white" fill-opacity="0.8"/>
<path d="M163.467 31.111C160.34 31.111 157.903 30.2662 156.156 28.5764C154.409 26.8658 153.535 24.4251 153.535 21.2542V8.89408H157.741V21.0978C157.741 25.3951 159.66 27.5438 163.499 27.5438C167.317 27.5438 169.226 25.3951 169.226 21.0978V8.89408H173.367V21.2542C173.367 24.4251 172.493 26.8658 170.746 28.5764C169.021 30.2662 166.595 31.111 163.467 31.111Z" fill="white" fill-opacity="0.8"/>
<path d="M183.44 12.3361H175.935V8.89408H195.152V12.3361H187.646V30.7981H183.44V12.3361Z" fill="white" fill-opacity="0.8"/>
<path d="M0 0H116.826V4.44444H4.49332V35.5556H112.333H116.826V40H0V0Z" fill="white" fill-opacity="0.8"/>
<path d="M116.826 8.88889L112.333 35.5556H116.826L121.32 8.88889H116.826Z" fill="white" fill-opacity="0.8"/>
</svg>
