<svg width="741" height="1234" viewBox="0 0 741 1234" fill="none" xmlns="http://www.w3.org/2000/svg">
<mask id="mask0" masktype="alpha" maskUnits="userSpaceOnUse" x="202" y="153" width="920" height="848">
<path d="M635.262 917.365C813.101 964.173 970.801 776.59 1027.42 676.947C1038.39 659.981 1060.54 610.4 1061.41 547.806C1062.5 469.563 903.502 470.931 849.336 432.43C795.17 393.929 756.96 314.828 678.175 247.711C599.391 180.594 508.096 235.095 482.487 326.386C456.878 417.677 304.365 324.302 277.843 529.196C251.32 734.089 412.963 858.854 635.262 917.365Z" fill="#0B56FA"/>
</mask>
<g mask="url(#mask0)">
<rect x="321.976" y="-17.1517" width="1256.55" height="8.35841" transform="rotate(36.8196 321.976 -17.1517)" fill="#ffffff" fill-opacity="1"/>
<rect x="308.618" y="0.690796" width="1256.55" height="8.35841" transform="rotate(36.8196 308.618 0.690796)" fill="#ffffff" fill-opacity="1"/>
<rect x="295.26" y="18.5339" width="1256.55" height="8.35841" transform="rotate(36.8196 295.26 18.5339)" fill="#ffffff" fill-opacity="1"/>
<rect x="281.902" y="36.3768" width="1256.55" height="8.35841" transform="rotate(36.8196 281.902 36.3768)" fill="#ffffff" fill-opacity="1"/>
<rect x="268.544" y="54.2198" width="1256.55" height="8.35841" transform="rotate(36.8196 268.544 54.2198)" fill="#ffffff" fill-opacity="1"/>
<rect x="255.187" y="72.063" width="1256.55" height="8.35841" transform="rotate(36.8196 255.187 72.063)" fill="#ffffff" fill-opacity="1"/>
<rect x="241.829" y="89.9059" width="1256.55" height="8.35841" transform="rotate(36.8196 241.829 89.9059)" fill="#ffffff" fill-opacity="1"/>
<rect x="228.472" y="107.749" width="1256.55" height="8.35841" transform="rotate(36.8196 228.472 107.749)" fill="#ffffff" fill-opacity="1"/>
<rect x="215.114" y="125.592" width="1256.55" height="8.35841" transform="rotate(36.8196 215.114 125.592)" fill="#ffffff" fill-opacity="1"/>
<rect x="201.755" y="143.435" width="1256.55" height="8.35841" transform="rotate(36.8196 201.755 143.435)" fill="#ffffff" fill-opacity="1"/>
<rect x="188.398" y="161.278" width="1256.55" height="8.35841" transform="rotate(36.8196 188.398 161.278)" fill="#ffffff" fill-opacity="1"/>
<rect x="175.04" y="179.121" width="1256.55" height="8.35841" transform="rotate(36.8196 175.04 179.121)" fill="#ffffff" fill-opacity="1"/>
<rect x="161.682" y="196.964" width="1256.55" height="8.35841" transform="rotate(36.8196 161.682 196.964)" fill="#ffffff" fill-opacity="1"/>
<rect x="148.324" y="214.807" width="1256.55" height="8.35841" transform="rotate(36.8196 148.324 214.807)" fill="#ffffff" fill-opacity="1"/>
<rect x="134.967" y="232.65" width="1256.55" height="8.35841" transform="rotate(36.8196 134.967 232.65)" fill="#ffffff" fill-opacity="1"/>
<rect x="121.609" y="250.493" width="1256.55" height="8.35841" transform="rotate(36.8196 121.609 250.493)" fill="#ffffff" fill-opacity="1"/>
<rect x="108.251" y="268.336" width="1256.55" height="8.35841" transform="rotate(36.8196 108.251 268.336)" fill="#ffffff" fill-opacity="1"/>
<rect x="94.8933" y="286.179" width="1256.55" height="8.35841" transform="rotate(36.8196 94.8933 286.179)" fill="#ffffff" fill-opacity="1"/>
<rect x="81.5355" y="304.022" width="1256.55" height="8.35841" transform="rotate(36.8196 81.5355 304.022)" fill="#ffffff" fill-opacity="1"/>
<rect x="68.1777" y="321.865" width="1256.55" height="8.35841" transform="rotate(36.8196 68.1777 321.865)" fill="#ffffff" fill-opacity="1"/>
<rect x="54.8199" y="339.708" width="1256.55" height="8.35841" transform="rotate(36.8196 54.8199 339.708)" fill="#ffffff" fill-opacity="1"/>
<rect x="39.7925" y="359.782" width="1256.55" height="8.35841" transform="rotate(36.8196 39.7925 359.782)" fill="#ffffff" fill-opacity="1"/>
<rect x="24.7649" y="379.855" width="1256.55" height="8.35841" transform="rotate(36.8196 24.7649 379.855)" fill="#ffffff" fill-opacity="1"/>
<rect x="9.7373" y="399.928" width="1256.55" height="8.35841" transform="rotate(36.8196 9.7373 399.928)" fill="#ffffff" fill-opacity="1"/>
<rect x="-5.29028" y="420.002" width="1256.55" height="8.35841" transform="rotate(36.8196 -5.29028 420.002)" fill="#ffffff" fill-opacity="1"/>
<rect x="-20.3173" y="440.075" width="1256.55" height="8.35841" transform="rotate(36.8196 -20.3173 440.075)" fill="#ffffff" fill-opacity="1"/>
<rect x="-35.3448" y="460.148" width="1256.55" height="8.35841" transform="rotate(36.8196 -35.3448 460.148)" fill="#ffffff" fill-opacity="1"/>
</g>
</svg>
