<svg width="658" height="" viewBox="0 0 658 361" fill="none" xmlns="http://www.w3.org/2000/svg">
<g clip-path="url(#clip0)">
<path d="M658 338.174C658 318.525 648.056 302.596 635.788 302.596C628.078 302.596 621.288 308.891 617.305 318.445C615.96 317.885 614.517 317.595 613.06 317.591C609.347 317.591 605.914 319.499 603.115 322.727C599.525 310.815 591.912 302.596 583.101 302.596C574.862 302.596 567.677 309.786 563.842 320.457C561.712 318.655 559.028 317.643 556.24 317.591C546.826 317.591 539.194 329.816 539.194 344.895C539.155 349.922 540.067 354.911 541.88 359.597H653.52C656.331 353.638 658 346.219 658 338.174Z" fill="white"/>
<path d="M578.369 132.726C560.877 94.7878 526.646 62.4231 485.292 57.1482C474.358 55.7535 462.942 56.3128 452.797 60.6334C439.481 66.305 429.667 77.7527 419.747 88.3129C398.745 110.666 375.243 130.517 349.707 147.473C337.103 155.839 323.584 163.645 308.62 165.785C278.617 170.077 248.94 149.563 235.257 122.45C226.709 105.513 222.759 85.6281 215.849 68.0114C207.892 67.9962 198.411 67.9991 188.211 68.0462C160.016 68.1765 137.067 68.5942 137.067 68.5942C137.067 68.5942 164.346 32.3661 188.108 45.7883C195.702 50.0777 203.656 53.9054 210.965 57.1298C206.813 49.1211 201.575 41.9151 194.369 36.1214C180.16 24.6973 160.916 21.4928 142.723 22.3436C123.618 23.237 104.338 28.3651 88.8146 39.565C61.1599 59.5167 49.7398 94.6352 39.9656 127.359L63.5911 139.234C73.725 130.449 88.5438 121.76 102.203 129.475C125.965 142.898 153.263 151.809 153.263 151.809C153.263 151.809 130.5 151.603 102.305 151.733C97.5697 151.755 92.9879 151.785 88.6324 151.82L350.933 283.66C437.448 284.881 502.68 280.191 584.889 283.66C589.176 283.841 598.82 261.307 598.852 255.377C599.078 213.582 595.861 170.665 578.369 132.726ZM494.363 144.097C466.169 144.228 443.22 144.645 443.22 144.645C443.22 144.645 470.498 108.417 494.261 121.84C518.024 135.262 545.321 144.174 545.321 144.174C545.321 144.174 522.558 143.967 494.363 144.098L494.363 144.097Z" fill="#F2F2F2" fill-opacity="0.75"/>
<path opacity="0.3" d="M567.83 268.083C567.83 253.796 559.007 242.214 548.124 242.214C541.284 242.214 535.259 246.791 531.726 253.738C530.513 253.327 529.241 253.118 527.96 253.117C524.649 253.173 521.487 254.511 519.137 256.851C515.952 248.19 509.198 242.214 501.381 242.214C494.072 242.214 487.697 247.442 484.295 255.201C482.299 253.858 479.954 253.133 477.551 253.117C469.199 253.117 462.428 262.005 462.428 272.97C462.403 276.668 463.218 280.324 464.81 283.66H563.856C566.512 278.903 567.882 273.534 567.83 268.083Z" fill="#6C63FF"/>
<path opacity="0.5" d="M125.982 49.8296C125.982 35.5427 117.159 23.9608 106.276 23.9608C99.4357 23.9608 93.4113 28.5379 89.878 35.4846C88.6647 35.074 87.3927 34.8643 86.1121 34.8636C82.8004 34.9199 79.6387 36.258 77.2885 38.598C74.1035 29.9366 67.3498 23.9608 59.5326 23.9608C52.2235 23.9608 45.8487 29.1888 42.4468 36.9476C40.4513 35.6047 38.1059 34.88 35.7025 34.8636C27.3504 34.8636 20.5796 43.752 20.5796 54.7164C20.5552 58.4147 21.3699 62.0702 22.9622 65.4063H122.007C124.663 60.65 126.033 55.2803 125.982 49.8296Z" fill="#6C63FF"/>
<path d="M658 360.627H49.9592V359.406H657.391L658 360.627Z" fill="#2F2E41"/>
<path d="M608.041 284.882H0V283.66H607.431L608.041 284.882Z" fill="#2F2E41"/>
<path d="M258.1 172.423C258.1 172.423 261.93 144.267 268.312 151.946C274.695 159.625 268.312 171.143 268.312 171.143L263.206 177.542L258.1 173.703V172.423Z" fill="#FFB8B8"/>
<path d="M242.782 181.382C242.782 181.382 255.547 167.304 258.1 169.863C260.653 172.423 268.312 173.703 267.036 178.822C265.759 183.942 238.953 200.579 238.953 200.579L242.782 181.382Z" fill="white"/>
<path d="M170.022 180.102V190.341C170.022 190.341 168.746 213.378 176.405 212.098C184.064 210.818 180.234 191.621 180.234 191.621L178.958 180.102H170.022Z" fill="#FFB8B8"/>
<path d="M173.852 254.333C173.852 254.333 162.363 272.25 158.534 273.53C154.704 274.81 134.28 286.329 131.727 297.847L113.856 320.884L122.792 332.403C122.792 332.403 163.64 288.888 175.128 285.049C186.617 281.209 198.105 262.012 198.105 262.012L173.852 254.333Z" fill="#FFB8B8"/>
<path d="M264.483 224.896C264.483 224.896 288.736 228.736 284.907 244.094C281.077 259.452 244.059 291.448 244.059 291.448L242.782 299.127L228.741 301.687L222.358 295.287L223.635 291.448C223.635 291.448 238.953 277.37 240.229 272.25C241.506 267.131 255.547 246.654 261.93 245.374L252.994 240.254L264.483 224.896Z" fill="#FFB8B8"/>
<path d="M117.686 320.884C117.686 320.884 122.792 313.205 115.133 314.485C107.474 315.765 102.368 317.044 102.368 322.164C102.368 327.283 108.75 363.119 116.409 360.559C124.068 357.999 117.686 346.481 117.686 346.481C117.686 346.481 121.515 336.242 124.068 334.962C126.621 333.682 126.621 327.283 124.068 327.283C121.515 327.283 116.409 323.444 117.686 320.884Z" fill="#2F2E41"/>
<path d="M226.188 292.728C226.188 292.728 226.188 286.329 221.082 292.728C215.976 299.127 213.423 304.246 218.529 308.086C223.635 311.925 241.506 320.884 241.506 320.884C241.506 320.884 260.653 324.724 258.1 315.765C258.1 315.765 245.335 309.366 245.335 304.246C245.335 299.127 245.335 290.168 241.506 292.728C237.676 295.287 226.188 296.567 226.188 292.728Z" fill="#2F2E41"/>
<path d="M201.934 196.74C201.934 196.74 184.063 199.3 185.34 224.896C185.34 224.896 162.363 247.933 168.746 255.612C175.128 263.291 189.169 277.37 194.275 273.53C199.381 269.691 214.699 240.254 214.699 240.254C214.699 240.254 250.441 253.053 256.824 246.654C263.206 240.254 269.589 224.896 269.589 224.896L237.676 208.259L201.934 196.74Z" fill="#2F2E41"/>
<path d="M251.718 123.789C260.178 123.789 267.036 116.913 267.036 108.431C267.036 99.9493 260.178 93.0732 251.718 93.0732C243.258 93.0732 236.4 99.9493 236.4 108.431C236.4 116.913 243.258 123.789 251.718 123.789Z" fill="#FFB8B8"/>
<path d="M240.229 109.711C240.229 109.711 231.294 123.789 228.741 125.069C226.188 126.349 246.612 139.147 246.612 139.147C246.612 139.147 246.612 122.509 252.994 118.67L240.229 109.711Z" fill="#FFB8B8"/>
<path d="M238.953 123.789C238.953 123.789 218.529 117.39 214.699 127.629C210.87 137.868 201.934 157.065 203.211 169.863C204.487 182.662 207.04 180.102 203.211 183.942C199.382 187.781 196.829 185.221 198.105 190.341C199.381 195.46 200.658 195.46 199.381 198.02C198.105 200.58 214.699 209.538 228.741 210.818L242.782 212.098C242.782 212.098 242.782 189.061 245.335 183.942C247.888 178.822 252.994 168.584 252.994 164.744V154.585C252.994 147.823 251.234 141.179 247.888 135.308C247.888 135.308 240.229 123.789 238.953 123.789Z" fill="white"/>
<path d="M223.635 128.909C223.635 128.909 176.405 132.748 171.299 145.546C166.193 158.345 163.64 183.942 168.746 183.942C173.852 183.942 180.234 186.501 181.511 183.942C182.787 181.382 187.893 155.785 189.17 155.785C190.446 155.785 228.741 151.946 228.741 151.946C228.741 151.946 245.335 131.468 223.635 128.909Z" fill="white"/>
<path d="M252.333 104.624C252.333 104.624 256.398 97.5412 261.479 103.693C266.56 109.845 274.826 98.5399 273.557 96.1276C272.289 93.7153 267.807 96.236 260.128 93.7191C252.449 91.2021 237.656 86.0746 235.178 102.801C232.701 119.527 238.601 117.774 238.601 117.774C238.601 117.774 241.306 102.952 243.75 107.21L246.195 111.467L248.315 111.99L252.333 104.624Z" fill="#2F2E41"/>
<path d="M396.816 65.4328C407.137 65.4328 415.504 57.0437 415.504 46.6953C415.504 36.3468 407.137 27.9577 396.816 27.9577C386.494 27.9577 378.127 36.3468 378.127 46.6953C378.127 57.0437 386.494 65.4328 396.816 65.4328Z" fill="#2F2E41"/>
<path d="M390.842 60.5644C390.842 60.5644 391.809 78.0177 389.875 78.0177C387.941 78.0177 401.964 86.2596 401.964 86.2596L410.668 81.4115V75.5937C410.668 75.5937 399.062 74.1392 403.898 61.534C408.733 48.9288 390.842 60.5644 390.842 60.5644Z" fill="#9F616A"/>
<path d="M350.224 252.066L348.773 266.611L353.609 268.065L357.477 264.187L358.927 252.066H350.224Z" fill="#9F616A"/>
<path d="M419.855 260.309L422.273 269.52L429.042 273.883L436.296 270.005L428.075 256.43L419.855 260.309Z" fill="#9F616A"/>
<path d="M395.436 68.079C403.181 68.079 409.459 61.7843 409.459 54.0194C409.459 46.2544 403.181 39.9597 395.436 39.9597C387.691 39.9597 381.413 46.2544 381.413 54.0194C381.413 61.7843 387.691 68.079 395.436 68.079Z" fill="#9F616A"/>
<path d="M386.974 106.622L383.589 105.167C383.589 105.167 377.786 101.774 377.303 94.9863C376.819 88.1989 382.138 79.4722 382.138 79.4722L389.875 77.0482L398.965 84.466L399.062 96.4408L386.974 106.622Z" fill="#9F616A"/>
<path d="M383.589 80.4418L381.655 79.4722C381.655 79.4722 371.983 78.9874 371.016 90.6229C370.049 102.259 366.664 121.651 366.664 121.651C366.664 121.651 358.928 135.226 359.411 149.77L355.543 162.376C355.543 162.376 350.224 180.799 356.51 180.799C362.796 180.799 362.313 160.921 362.313 160.921C362.313 160.921 373.918 132.802 374.885 127.954C375.852 123.106 384.072 100.319 381.655 94.0166C379.237 87.714 383.589 80.4418 383.589 80.4418Z" fill="#9F616A"/>
<path d="M390.842 110.985V116.318C390.842 116.318 394.227 120.197 392.776 122.621C391.326 125.045 389.875 129.893 389.875 129.893L396.645 140.559L419.372 142.498L423.891 112.139L390.842 110.985Z" fill="#9F616A"/>
<path d="M412.118 77.0481L415.987 75.1089C415.987 75.1089 424.207 69.2911 430.977 68.3215L451.769 54.2618L465.309 21.7791C465.309 21.7791 464.825 4.32578 468.694 6.26504C472.562 8.2043 472.078 23.2336 472.078 23.2336C472.078 23.2336 464.825 53.2922 458.539 61.534C452.253 69.7759 429.526 83.3507 429.526 83.3507C429.526 83.3507 423.24 90.6229 423.723 94.0167C424.207 97.4104 412.118 77.0481 412.118 77.0481Z" fill="#9F616A"/>
<path d="M394.227 129.893C394.227 129.893 388.908 126.499 385.523 132.317C382.138 138.135 375.852 139.589 371.984 157.043C368.115 174.496 358.928 202.131 356.51 204.07C354.092 206.009 343.938 226.371 349.74 254.976H359.411L367.632 213.766C367.632 213.766 394.227 180.799 396.161 167.224L404.865 218.129C404.865 218.129 405.348 237.522 412.602 246.734L420.339 265.157L430.493 260.308L418.888 213.766C418.888 213.766 424.69 166.739 420.822 153.649L420.266 136.488C420.266 136.488 404.381 137.165 394.227 129.893Z" fill="#2F2E41"/>
<path d="M353.609 264.187H347.806C346.839 264.187 339.102 270.49 342.487 273.883C345.872 277.277 351.191 283.58 351.191 283.58C351.191 283.58 370.049 285.984 370.533 282.591C371.016 279.197 362.313 271.944 362.313 271.944L359.895 264.187C359.895 264.187 355.059 258.854 353.609 264.187Z" fill="#2F2E41"/>
<path d="M430.493 269.035C430.493 269.035 422.273 268.55 420.822 268.066C419.372 267.581 416.47 280.671 420.822 281.64C425.174 282.61 443.065 284.064 443.065 284.064C443.065 284.064 457.088 283.58 456.121 279.701C455.154 275.823 436.296 268.066 436.296 268.066C436.296 268.066 433.878 263.217 430.493 269.035Z" fill="#2F2E41"/>
<path d="M392.293 76.5633L389.875 75.1088L386.974 77.5329C386.974 77.5329 395.677 83.3507 393.743 88.6837C391.809 94.0167 383.589 105.167 383.589 105.167C383.589 105.167 390.842 113.409 390.842 116.318C390.842 116.318 409.7 109.531 423.723 116.318C423.723 116.318 423.723 106.622 425.658 104.683C427.592 102.743 428.559 95.956 423.723 90.1382C420.317 85.8573 417.245 81.3188 414.536 76.5633L409.7 73.6544L407.21 74.4465C407.21 74.4465 412.118 79.957 407.283 80.4419C402.447 80.9267 394.71 79.4722 392.293 76.5633Z" fill="white"/>
<path d="M410.475 14.7493C408.832 16.5879 406.582 17.7696 404.139 18.077C399.914 18.6821 403.233 25.3375 403.233 25.3375C403.233 25.3375 402.026 22.9173 404.44 20.7997C406.854 18.6821 410.475 17.472 410.475 14.7493Z" fill="#2F2E41"/>
<path d="M402.331 31.951C405.207 31.951 407.539 29.613 407.539 26.729C407.539 23.845 405.207 21.5071 402.331 21.5071C399.454 21.5071 397.122 23.845 397.122 26.729C397.122 29.613 399.454 31.951 402.331 31.951Z" fill="#2F2E41"/>
<path d="M408.411 31.871C404.387 29.7638 397.466 28.1065 393.788 28.225L394.718 24.6589C397.974 26.8767 404.86 28.5649 409.341 28.3049L408.411 31.871Z" fill="#6C63FF"/>
<path d="M400.098 32.1848C400.098 32.1848 393.758 40.3582 381.077 42.1745C368.396 43.9908 378.36 63.9702 378.36 63.9702C378.36 63.9702 374.736 56.705 381.983 50.3479C389.229 43.9908 400.098 40.3582 400.098 32.1848Z" fill="#2F2E41"/>
<path d="M400.582 31.7C400.582 31.7 404.205 44.4142 409.64 46.2305C415.074 48.0468 412.357 67.118 403.299 68.9343C403.299 68.9343 410.998 58.4906 406.469 50.3172C401.941 42.1438 399.223 35.7867 400.582 31.7Z" fill="#2F2E41"/>
<path d="M485.86 10.386H452.495V14.2645H485.86V10.386Z" fill="#2F2E41"/>
<path d="M485.86 23.9608C487.462 23.9608 488.761 18.7514 488.761 12.3252C488.761 5.89906 487.462 0.689636 485.86 0.689636C484.257 0.689636 482.958 5.89906 482.958 12.3252C482.958 18.7514 484.257 23.9608 485.86 23.9608Z" fill="#2F2E41"/>
<path d="M452.495 23.9608C454.097 23.9608 455.396 18.7514 455.396 12.3252C455.396 5.89906 454.097 0.689636 452.495 0.689636C450.892 0.689636 449.593 5.89906 449.593 12.3252C449.593 18.7514 450.892 23.9608 452.495 23.9608Z" fill="#2F2E41"/>
<path d="M502.784 271.226H469.419V275.105H502.784V271.226Z" fill="#2F2E41"/>
<path d="M502.784 284.801C504.386 284.801 505.685 279.592 505.685 273.165C505.685 266.739 504.386 261.53 502.784 261.53C501.182 261.53 499.883 266.739 499.883 273.165C499.883 279.592 501.182 284.801 502.784 284.801Z" fill="#2F2E41"/>
<path d="M469.419 284.801C471.021 284.801 472.32 279.592 472.32 273.165C472.32 266.739 471.021 261.53 469.419 261.53C467.817 261.53 466.518 266.739 466.518 273.165C466.518 279.592 467.817 284.801 469.419 284.801Z" fill="#2F2E41"/>
<path opacity="0.3" d="M118.196 268.083C118.196 253.796 109.374 242.214 98.4908 242.214C91.6505 242.214 85.6261 246.791 82.0928 253.738C80.8794 253.327 79.6075 253.118 78.3269 253.117C75.0152 253.173 71.8535 254.511 69.5033 256.851C66.3183 248.19 59.5645 242.214 51.7473 242.214C44.4383 242.214 38.0635 247.442 34.6616 255.201C32.6661 253.858 30.3207 253.133 27.9174 253.117C19.5652 253.117 12.7945 262.005 12.7945 272.97C12.77 276.668 13.5848 280.324 15.1771 283.66H114.222C116.878 278.903 118.248 273.534 118.196 268.083Z" fill="white"/>
</g>
<defs>
<clipPath id="clip0">
<rect width="658" height="360" fill="white" transform="translate(0 0.689636)"/>
</clipPath>
</defs>
</svg>
