<svg width="478" height="1157" viewBox="0 0 478 1157" fill="none" xmlns="http://www.w3.org/2000/svg">
<g opacity="0.05">
<g style="mix-blend-mode:screen">
<path d="M259.654 173.918C-75.5286 -119.803 -193.726 45.2626 -201.992 57.843C-202.338 58.3699 -202.461 58.9168 -202.455 59.5473L-198.525 482.431C-197.365 607.25 -96.7348 709.574 25.0885 682.368C163.592 651.436 325.961 580.17 381.937 416.639C435.723 259.506 286.502 197.445 259.654 173.918Z" fill="#6FCF97"/>
</g>
</g>
<g opacity="0.91" filter="url(#filter0_d)">
<path d="M302.324 724.66C181.001 618.367 98.7203 594.367 45.9565 598.167C-6.7717 601.964 -30.295 633.546 -34.0637 639.135C-34.3468 639.555 -34.4589 639.997 -34.4533 640.602L-32.5459 845.783C-31.8533 920.293 -0.280701 989.736 48.1151 1033.04C96.4822 1076.31 161.629 1093.47 229.676 1063.56C299.755 1032.75 363.742 982.665 391.595 901.311C401.388 872.708 401.923 848.489 396.959 827.983C391.994 807.47 381.508 790.608 369.161 776.75C356.811 762.889 342.612 752.051 330.247 743.591C325.402 740.276 320.848 737.333 316.793 734.712C315.672 733.987 314.588 733.286 313.547 732.61C308.768 729.503 304.846 726.869 302.324 724.66Z" stroke="#4F4F4F" stroke-width="2"/>
</g>
<mask id="mask0" mask-type="alpha" maskUnits="userSpaceOnUse" x="-36" y="537" width="363" height="391">
<path opacity="0.69" d="M245.218 643.105C45.0219 467.888 -27.7311 561.803 -34.8708 572.234C-35.2979 572.858 -35.4601 573.539 -35.4531 574.295L-34.3002 698.196C-32.9086 847.744 98.1402 982.968 225.209 904.101C266.688 878.356 301.819 841.914 319.491 790.349C352.16 695.026 261.526 657.378 245.218 643.105Z" fill="#25356A" fill-opacity="0.35"/>
</mask>
<g mask="url(#mask0)">
<circle cx="0.489514" cy="532.865" r="5.07203" fill="#25356A" fill-opacity="0.35"/>
<circle cx="17.3963" cy="532.865" r="5.07203" fill="#25356A" fill-opacity="0.35"/>
<circle cx="34.303" cy="532.865" r="5.07203" fill="#25356A" fill-opacity="0.35"/>
<circle cx="51.21" cy="532.865" r="5.07203" fill="#25356A" fill-opacity="0.35"/>
<circle cx="68.1167" cy="532.865" r="5.07203" fill="#25356A" fill-opacity="0.35"/>
<circle cx="85.0235" cy="532.865" r="5.07203" fill="#25356A" fill-opacity="0.35"/>
<circle cx="101.93" cy="532.865" r="5.07203" fill="#25356A" fill-opacity="0.35"/>
<circle cx="118.837" cy="532.865" r="5.07203" fill="#25356A" fill-opacity="0.35"/>
<circle cx="135.744" cy="532.865" r="5.07203" fill="#25356A" fill-opacity="0.35"/>
<circle cx="152.651" cy="532.865" r="5.07203" fill="#25356A" fill-opacity="0.35"/>
<circle cx="169.557" cy="532.865" r="5.07203" fill="#25356A" fill-opacity="0.35"/>
<circle cx="186.464" cy="532.865" r="5.07203" fill="#25356A" fill-opacity="0.35"/>
<circle cx="203.371" cy="532.865" r="5.07203" fill="#25356A" fill-opacity="0.35"/>
<circle cx="220.278" cy="532.865" r="5.07203" fill="#25356A" fill-opacity="0.35"/>
<circle cx="237.184" cy="532.865" r="5.07203" fill="#25356A" fill-opacity="0.35"/>
<circle cx="254.091" cy="532.865" r="5.07203" fill="#25356A" fill-opacity="0.35"/>
<circle cx="270.998" cy="532.865" r="5.07203" fill="#25356A" fill-opacity="0.35"/>
<circle cx="287.905" cy="532.865" r="5.07203" fill="#25356A" fill-opacity="0.35"/>
<circle cx="304.812" cy="532.865" r="5.07203" fill="#25356A" fill-opacity="0.35"/>
<circle cx="321.718" cy="532.865" r="5.07203" fill="#25356A" fill-opacity="0.35"/>
<circle cx="0.489514" cy="549.772" r="5.07203" fill="#25356A" fill-opacity="0.35"/>
<circle cx="17.3963" cy="549.772" r="5.07203" fill="#25356A" fill-opacity="0.35"/>
<circle cx="34.303" cy="549.772" r="5.07203" fill="#25356A" fill-opacity="0.35"/>
<circle cx="51.21" cy="549.772" r="5.07203" fill="#25356A" fill-opacity="0.35"/>
<circle cx="68.1167" cy="549.772" r="5.07203" fill="#25356A" fill-opacity="0.35"/>
<circle cx="118.837" cy="549.772" r="5.07203" fill="#25356A" fill-opacity="0.35"/>
<circle cx="135.744" cy="549.772" r="5.07203" fill="#25356A" fill-opacity="0.35"/>
<circle cx="152.651" cy="549.772" r="5.07203" fill="#25356A" fill-opacity="0.35"/>
<circle cx="169.557" cy="549.772" r="5.07203" fill="#25356A" fill-opacity="0.35"/>
<circle cx="186.464" cy="549.772" r="5.07203" fill="#25356A" fill-opacity="0.35"/>
<circle cx="203.371" cy="549.772" r="5.07203" fill="#25356A" fill-opacity="0.35"/>
<circle cx="220.278" cy="549.772" r="5.07203" fill="#25356A" fill-opacity="0.35"/>
<circle cx="237.184" cy="549.772" r="5.07203" fill="#25356A" fill-opacity="0.35"/>
<circle cx="254.091" cy="549.772" r="5.07203" fill="#25356A" fill-opacity="0.35"/>
<circle cx="270.998" cy="549.772" r="5.07203" fill="#25356A" fill-opacity="0.35"/>
<circle cx="287.905" cy="549.772" r="5.07203" fill="#25356A" fill-opacity="0.35"/>
<circle cx="304.812" cy="549.772" r="5.07203" fill="#25356A" fill-opacity="0.35"/>
<circle cx="321.718" cy="549.772" r="5.07203" fill="#25356A" fill-opacity="0.35"/>
<circle cx="0.489514" cy="566.679" r="5.07203" fill="#25356A" fill-opacity="0.35"/>
<circle cx="17.3963" cy="566.679" r="5.07203" fill="#25356A" fill-opacity="0.35"/>
<circle cx="34.303" cy="566.679" r="5.07203" fill="#25356A" fill-opacity="0.35"/>
<circle cx="51.21" cy="566.679" r="5.07203" fill="#25356A" fill-opacity="0.35"/>
<circle cx="68.1167" cy="566.679" r="5.07203" fill="#25356A" fill-opacity="0.35"/>
<circle cx="85.0235" cy="566.679" r="5.07203" fill="#25356A" fill-opacity="0.35"/>
<circle cx="101.93" cy="566.679" r="5.07203" fill="#25356A" fill-opacity="0.35"/>
<circle cx="118.837" cy="566.679" r="5.07203" fill="#25356A" fill-opacity="0.35"/>
<circle cx="152.651" cy="566.679" r="5.07203" fill="#25356A" fill-opacity="0.35"/>
<circle cx="169.557" cy="566.679" r="5.07203" fill="#25356A" fill-opacity="0.35"/>
<circle cx="186.464" cy="566.679" r="5.07203" fill="#25356A" fill-opacity="0.35"/>
<circle cx="203.371" cy="566.679" r="5.07203" fill="#25356A" fill-opacity="0.35"/>
<circle cx="220.278" cy="566.679" r="5.07203" fill="#25356A" fill-opacity="0.35"/>
<circle cx="237.184" cy="566.679" r="5.07203" fill="#25356A" fill-opacity="0.35"/>
<circle cx="254.091" cy="566.679" r="5.07203" fill="#25356A" fill-opacity="0.35"/>
<circle cx="270.998" cy="566.679" r="5.07203" fill="#25356A" fill-opacity="0.35"/>
<circle cx="287.905" cy="566.679" r="5.07203" fill="#25356A" fill-opacity="0.35"/>
<circle cx="304.812" cy="566.679" r="5.07203" fill="#25356A" fill-opacity="0.35"/>
<circle cx="321.718" cy="566.679" r="5.07203" fill="#25356A" fill-opacity="0.35"/>
<circle cx="0.489514" cy="583.585" r="5.07203" fill="#25356A" fill-opacity="0.35"/>
<circle cx="17.3963" cy="583.585" r="5.07203" fill="#25356A" fill-opacity="0.35"/>
<circle cx="34.303" cy="583.585" r="5.07203" fill="#25356A" fill-opacity="0.35"/>
<circle cx="51.21" cy="583.585" r="5.07203" fill="#25356A" fill-opacity="0.35"/>
<circle cx="68.1167" cy="583.585" r="5.07203" fill="#25356A" fill-opacity="0.35"/>
<circle cx="85.0235" cy="583.585" r="5.07203" fill="#25356A" fill-opacity="0.35"/>
<circle cx="101.93" cy="583.585" r="5.07203" fill="#25356A" fill-opacity="0.35"/>
<circle cx="118.837" cy="583.585" r="5.07203" fill="#25356A" fill-opacity="0.35"/>
<circle cx="135.744" cy="583.585" r="5.07203" fill="#25356A" fill-opacity="0.35"/>
<circle cx="152.651" cy="583.585" r="5.07203" fill="#25356A" fill-opacity="0.35"/>
<circle cx="186.464" cy="583.585" r="5.07203" fill="#25356A" fill-opacity="0.35"/>
<circle cx="203.371" cy="583.585" r="5.07203" fill="#25356A" fill-opacity="0.35"/>
<circle cx="220.278" cy="583.585" r="5.07203" fill="#25356A" fill-opacity="0.35"/>
<circle cx="237.184" cy="583.585" r="5.07203" fill="#25356A" fill-opacity="0.35"/>
<circle cx="254.091" cy="583.585" r="5.07203" fill="#25356A" fill-opacity="0.35"/>
<circle cx="270.998" cy="583.585" r="5.07203" fill="#25356A" fill-opacity="0.35"/>
<circle cx="287.905" cy="583.585" r="5.07203" fill="#25356A" fill-opacity="0.35"/>
<circle cx="304.812" cy="583.585" r="5.07203" fill="#25356A" fill-opacity="0.35"/>
<circle cx="321.718" cy="583.585" r="5.07203" fill="#25356A" fill-opacity="0.35"/>
<circle cx="0.489514" cy="600.492" r="5.07203" fill="#25356A" fill-opacity="0.35"/>
<circle cx="17.3963" cy="600.492" r="5.07203" fill="#25356A" fill-opacity="0.35"/>
<circle cx="34.303" cy="600.492" r="5.07203" fill="#25356A" fill-opacity="0.35"/>
<circle cx="51.21" cy="600.492" r="5.07203" fill="#25356A" fill-opacity="0.35"/>
<circle cx="68.1167" cy="600.492" r="5.07203" fill="#25356A" fill-opacity="0.35"/>
<circle cx="85.0235" cy="600.492" r="5.07203" fill="#25356A" fill-opacity="0.35"/>
<circle cx="101.93" cy="600.492" r="5.07203" fill="#25356A" fill-opacity="0.35"/>
<circle cx="118.837" cy="600.492" r="5.07203" fill="#25356A" fill-opacity="0.35"/>
<circle cx="135.744" cy="600.492" r="5.07203" fill="#25356A" fill-opacity="0.35"/>
<circle cx="152.651" cy="600.492" r="5.07203" fill="#25356A" fill-opacity="0.35"/>
<circle cx="169.557" cy="600.492" r="5.07203" fill="#25356A" fill-opacity="0.35"/>
<circle cx="203.371" cy="600.492" r="5.07203" fill="#25356A" fill-opacity="0.35"/>
<circle cx="220.278" cy="600.492" r="5.07203" fill="#25356A" fill-opacity="0.35"/>
<circle cx="237.184" cy="600.492" r="5.07203" fill="#25356A" fill-opacity="0.35"/>
<circle cx="254.091" cy="600.492" r="5.07203" fill="#25356A" fill-opacity="0.35"/>
<circle cx="270.998" cy="600.492" r="5.07203" fill="#25356A" fill-opacity="0.35"/>
<circle cx="287.905" cy="600.492" r="5.07203" fill="#25356A" fill-opacity="0.35"/>
<circle cx="304.812" cy="600.492" r="5.07203" fill="#25356A" fill-opacity="0.35"/>
<circle cx="321.718" cy="600.492" r="5.07203" fill="#25356A" fill-opacity="0.35"/>
<circle cx="0.489514" cy="617.399" r="5.07203" fill="#25356A" fill-opacity="0.35"/>
<circle cx="17.3963" cy="617.399" r="5.07203" fill="#25356A" fill-opacity="0.35"/>
<circle cx="34.303" cy="617.399" r="5.07203" fill="#25356A" fill-opacity="0.35"/>
<circle cx="51.21" cy="617.399" r="5.07203" fill="#25356A" fill-opacity="0.35"/>
<circle cx="68.1167" cy="617.399" r="5.07203" fill="#25356A" fill-opacity="0.35"/>
<circle cx="85.0235" cy="617.399" r="5.07203" fill="#25356A" fill-opacity="0.35"/>
<circle cx="101.93" cy="617.399" r="5.07203" fill="#25356A" fill-opacity="0.35"/>
<circle cx="118.837" cy="617.399" r="5.07203" fill="#25356A" fill-opacity="0.35"/>
<circle cx="135.744" cy="617.399" r="5.07203" fill="#25356A" fill-opacity="0.35"/>
<circle cx="152.651" cy="617.399" r="5.07203" fill="#25356A" fill-opacity="0.35"/>
<circle cx="169.557" cy="617.399" r="5.07203" fill="#25356A" fill-opacity="0.35"/>
<circle cx="186.464" cy="617.399" r="5.07203" fill="#25356A" fill-opacity="0.35"/>
<circle cx="203.371" cy="617.399" r="5.07203" fill="#25356A" fill-opacity="0.35"/>
<circle cx="237.184" cy="617.399" r="5.07203" fill="#25356A" fill-opacity="0.35"/>
<circle cx="254.091" cy="617.399" r="5.07203" fill="#25356A" fill-opacity="0.35"/>
<circle cx="270.998" cy="617.399" r="5.07203" fill="#25356A" fill-opacity="0.35"/>
<circle cx="287.905" cy="617.399" r="5.07203" fill="#25356A" fill-opacity="0.35"/>
<circle cx="304.812" cy="617.399" r="5.07203" fill="#25356A" fill-opacity="0.35"/>
<circle cx="321.718" cy="617.399" r="5.07203" fill="#25356A" fill-opacity="0.35"/>
<circle cx="0.489514" cy="634.306" r="5.07203" fill="#25356A" fill-opacity="0.35"/>
<circle cx="17.3963" cy="634.306" r="5.07203" fill="#25356A" fill-opacity="0.35"/>
<circle cx="34.303" cy="634.306" r="5.07203" fill="#25356A" fill-opacity="0.35"/>
<circle cx="51.21" cy="634.306" r="5.07203" fill="#25356A" fill-opacity="0.35"/>
<circle cx="68.1167" cy="634.306" r="5.07203" fill="#25356A" fill-opacity="0.35"/>
<circle cx="85.0235" cy="634.306" r="5.07203" fill="#25356A" fill-opacity="0.35"/>
<circle cx="101.93" cy="634.306" r="5.07203" fill="#25356A" fill-opacity="0.35"/>
<circle cx="118.837" cy="634.306" r="5.07203" fill="#25356A" fill-opacity="0.35"/>
<circle cx="135.744" cy="634.306" r="5.07203" fill="#25356A" fill-opacity="0.35"/>
<circle cx="152.651" cy="634.306" r="5.07203" fill="#25356A" fill-opacity="0.35"/>
<circle cx="169.557" cy="634.306" r="5.07203" fill="#25356A" fill-opacity="0.35"/>
<circle cx="186.464" cy="634.306" r="5.07203" fill="#25356A" fill-opacity="0.35"/>
<circle cx="203.371" cy="634.306" r="5.07203" fill="#25356A" fill-opacity="0.35"/>
<circle cx="220.278" cy="634.306" r="5.07203" fill="#25356A" fill-opacity="0.35"/>
<circle cx="254.091" cy="634.306" r="5.07203" fill="#25356A" fill-opacity="0.35"/>
<circle cx="270.998" cy="634.306" r="5.07203" fill="#25356A" fill-opacity="0.35"/>
<circle cx="287.905" cy="634.306" r="5.07203" fill="#25356A" fill-opacity="0.35"/>
<circle cx="304.812" cy="634.306" r="5.07203" fill="#25356A" fill-opacity="0.35"/>
<circle cx="321.718" cy="634.306" r="5.07203" fill="#25356A" fill-opacity="0.35"/>
<circle cx="0.489514" cy="651.212" r="5.07203" fill="#25356A" fill-opacity="0.35"/>
<circle cx="17.3963" cy="651.212" r="5.07203" fill="#25356A" fill-opacity="0.35"/>
<circle cx="34.303" cy="651.212" r="5.07203" fill="#25356A" fill-opacity="0.35"/>
<circle cx="51.21" cy="651.212" r="5.07203" fill="#25356A" fill-opacity="0.35"/>
<circle cx="68.1167" cy="651.212" r="5.07203" fill="#25356A" fill-opacity="0.35"/>
<circle cx="85.0235" cy="651.212" r="5.07203" fill="#25356A" fill-opacity="0.35"/>
<circle cx="101.93" cy="651.212" r="5.07203" fill="#25356A" fill-opacity="0.35"/>
<circle cx="118.837" cy="651.212" r="5.07203" fill="#25356A" fill-opacity="0.35"/>
<circle cx="135.744" cy="651.212" r="5.07203" fill="#25356A" fill-opacity="0.35"/>
<circle cx="152.651" cy="651.212" r="5.07203" fill="#25356A" fill-opacity="0.35"/>
<circle cx="169.557" cy="651.212" r="5.07203" fill="#25356A" fill-opacity="0.35"/>
<circle cx="186.464" cy="651.212" r="5.07203" fill="#25356A" fill-opacity="0.35"/>
<circle cx="203.371" cy="651.212" r="5.07203" fill="#25356A" fill-opacity="0.35"/>
<circle cx="220.278" cy="651.212" r="5.07203" fill="#25356A" fill-opacity="0.35"/>
<circle cx="237.184" cy="651.212" r="5.07203" fill="#25356A" fill-opacity="0.35"/>
<circle cx="270.998" cy="651.212" r="5.07203" fill="#25356A" fill-opacity="0.35"/>
<circle cx="287.905" cy="651.212" r="5.07203" fill="#25356A" fill-opacity="0.35"/>
<circle cx="304.812" cy="651.212" r="5.07203" fill="#25356A" fill-opacity="0.35"/>
<circle cx="321.718" cy="651.212" r="5.07203" fill="#25356A" fill-opacity="0.35"/>
<circle cx="0.489514" cy="668.119" r="5.07203" fill="#25356A" fill-opacity="0.35"/>
<circle cx="17.3963" cy="668.119" r="5.07203" fill="#25356A" fill-opacity="0.35"/>
<circle cx="34.303" cy="668.119" r="5.07203" fill="#25356A" fill-opacity="0.35"/>
<circle cx="51.21" cy="668.119" r="5.07203" fill="#25356A" fill-opacity="0.35"/>
<circle cx="68.1167" cy="668.119" r="5.07203" fill="#25356A" fill-opacity="0.35"/>
<circle cx="85.0235" cy="668.119" r="5.07203" fill="#25356A" fill-opacity="0.35"/>
<circle cx="101.93" cy="668.119" r="5.07203" fill="#25356A" fill-opacity="0.35"/>
<circle cx="118.837" cy="668.119" r="5.07203" fill="#25356A" fill-opacity="0.35"/>
<circle cx="135.744" cy="668.119" r="5.07203" fill="#25356A" fill-opacity="0.35"/>
<circle cx="152.651" cy="668.119" r="5.07203" fill="#25356A" fill-opacity="0.35"/>
<circle cx="169.557" cy="668.119" r="5.07203" fill="#25356A" fill-opacity="0.35"/>
<circle cx="186.464" cy="668.119" r="5.07203" fill="#25356A" fill-opacity="0.35"/>
<circle cx="203.371" cy="668.119" r="5.07203" fill="#25356A" fill-opacity="0.35"/>
<circle cx="220.278" cy="668.119" r="5.07203" fill="#25356A" fill-opacity="0.35"/>
<circle cx="237.184" cy="668.119" r="5.07203" fill="#25356A" fill-opacity="0.35"/>
<circle cx="254.091" cy="668.119" r="5.07203" fill="#25356A" fill-opacity="0.35"/>
<circle cx="270.998" cy="668.119" r="5.07203" fill="#25356A" fill-opacity="0.35"/>
<circle cx="304.812" cy="668.119" r="5.07203" fill="#25356A" fill-opacity="0.35"/>
<circle cx="321.718" cy="668.119" r="5.07203" fill="#25356A" fill-opacity="0.35"/>
<circle cx="0.489514" cy="685.026" r="5.07203" fill="#25356A" fill-opacity="0.35"/>
<circle cx="17.3963" cy="685.026" r="5.07203" fill="#25356A" fill-opacity="0.35"/>
<circle cx="34.303" cy="685.026" r="5.07203" fill="#25356A" fill-opacity="0.35"/>
<circle cx="51.21" cy="685.026" r="5.07203" fill="#25356A" fill-opacity="0.35"/>
<circle cx="68.1167" cy="685.026" r="5.07203" fill="#25356A" fill-opacity="0.35"/>
<circle cx="85.0235" cy="685.026" r="5.07203" fill="#25356A" fill-opacity="0.35"/>
<circle cx="101.93" cy="685.026" r="5.07203" fill="#25356A" fill-opacity="0.35"/>
<circle cx="118.837" cy="685.026" r="5.07203" fill="#25356A" fill-opacity="0.35"/>
<circle cx="135.744" cy="685.026" r="5.07203" fill="#25356A" fill-opacity="0.35"/>
<circle cx="152.651" cy="685.026" r="5.07203" fill="#25356A" fill-opacity="0.35"/>
<circle cx="169.557" cy="685.026" r="5.07203" fill="#25356A" fill-opacity="0.35"/>
<circle cx="186.464" cy="685.026" r="5.07203" fill="#25356A" fill-opacity="0.35"/>
<circle cx="203.371" cy="685.026" r="5.07203" fill="#25356A" fill-opacity="0.35"/>
<circle cx="220.278" cy="685.026" r="5.07203" fill="#25356A" fill-opacity="0.35"/>
<circle cx="237.184" cy="685.026" r="5.07203" fill="#25356A" fill-opacity="0.35"/>
<circle cx="254.091" cy="685.026" r="5.07203" fill="#25356A" fill-opacity="0.35"/>
<circle cx="270.998" cy="685.026" r="5.07203" fill="#25356A" fill-opacity="0.35"/>
<circle cx="287.905" cy="685.026" r="5.07203" fill="#25356A" fill-opacity="0.35"/>
<circle cx="321.718" cy="685.026" r="5.07203" fill="#25356A" fill-opacity="0.35"/>
<circle cx="0.489514" cy="701.933" r="5.07203" fill="#25356A" fill-opacity="0.35"/>
<circle cx="17.3963" cy="701.933" r="5.07203" fill="#25356A" fill-opacity="0.35"/>
<circle cx="34.303" cy="701.933" r="5.07203" fill="#25356A" fill-opacity="0.35"/>
<circle cx="51.21" cy="701.933" r="5.07203" fill="#25356A" fill-opacity="0.35"/>
<circle cx="68.1167" cy="701.933" r="5.07203" fill="#25356A" fill-opacity="0.35"/>
<circle cx="85.0235" cy="701.933" r="5.07203" fill="#25356A" fill-opacity="0.35"/>
<circle cx="101.93" cy="701.933" r="5.07203" fill="#25356A" fill-opacity="0.35"/>
<circle cx="118.837" cy="701.933" r="5.07203" fill="#25356A" fill-opacity="0.35"/>
<circle cx="135.744" cy="701.933" r="5.07203" fill="#25356A" fill-opacity="0.35"/>
<circle cx="152.651" cy="701.933" r="5.07203" fill="#25356A" fill-opacity="0.35"/>
<circle cx="169.557" cy="701.933" r="5.07203" fill="#25356A" fill-opacity="0.35"/>
<circle cx="186.464" cy="701.933" r="5.07203" fill="#25356A" fill-opacity="0.35"/>
<circle cx="203.371" cy="701.933" r="5.07203" fill="#25356A" fill-opacity="0.35"/>
<circle cx="220.278" cy="701.933" r="5.07203" fill="#25356A" fill-opacity="0.35"/>
<circle cx="237.184" cy="701.933" r="5.07203" fill="#25356A" fill-opacity="0.35"/>
<circle cx="254.091" cy="701.933" r="5.07203" fill="#25356A" fill-opacity="0.35"/>
<circle cx="270.998" cy="701.933" r="5.07203" fill="#25356A" fill-opacity="0.35"/>
<circle cx="287.905" cy="701.933" r="5.07203" fill="#25356A" fill-opacity="0.35"/>
<circle cx="304.812" cy="701.933" r="5.07203" fill="#25356A" fill-opacity="0.35"/>
<circle cx="321.718" cy="701.933" r="5.07203" fill="#25356A" fill-opacity="0.35"/>
<circle cx="0.489514" cy="718.84" r="5.07203" fill="#25356A" fill-opacity="0.35"/>
<circle cx="17.3963" cy="718.84" r="5.07203" fill="#25356A" fill-opacity="0.35"/>
<circle cx="34.303" cy="718.84" r="5.07203" fill="#25356A" fill-opacity="0.35"/>
<circle cx="51.21" cy="718.84" r="5.07203" fill="#25356A" fill-opacity="0.35"/>
<circle cx="68.1167" cy="718.84" r="5.07203" fill="#25356A" fill-opacity="0.35"/>
<circle cx="85.0235" cy="718.84" r="5.07203" fill="#25356A" fill-opacity="0.35"/>
<circle cx="101.93" cy="718.84" r="5.07203" fill="#25356A" fill-opacity="0.35"/>
<circle cx="118.837" cy="718.84" r="5.07203" fill="#25356A" fill-opacity="0.35"/>
<circle cx="135.744" cy="718.84" r="5.07203" fill="#25356A" fill-opacity="0.35"/>
<circle cx="152.651" cy="718.84" r="5.07203" fill="#25356A" fill-opacity="0.35"/>
<circle cx="169.557" cy="718.84" r="5.07203" fill="#25356A" fill-opacity="0.35"/>
<circle cx="186.464" cy="718.84" r="5.07203" fill="#25356A" fill-opacity="0.35"/>
<circle cx="203.371" cy="718.84" r="5.07203" fill="#25356A" fill-opacity="0.35"/>
<circle cx="220.278" cy="718.84" r="5.07203" fill="#25356A" fill-opacity="0.35"/>
<circle cx="237.184" cy="718.84" r="5.07203" fill="#25356A" fill-opacity="0.35"/>
<circle cx="254.091" cy="718.84" r="5.07203" fill="#25356A" fill-opacity="0.35"/>
<circle cx="270.998" cy="718.84" r="5.07203" fill="#25356A" fill-opacity="0.35"/>
<circle cx="287.905" cy="718.84" r="5.07203" fill="#25356A" fill-opacity="0.35"/>
<circle cx="304.812" cy="718.84" r="5.07203" fill="#25356A" fill-opacity="0.35"/>
<circle cx="0.489514" cy="735.746" r="5.07203" fill="#25356A" fill-opacity="0.35"/>
<circle cx="17.3963" cy="735.746" r="5.07203" fill="#25356A" fill-opacity="0.35"/>
<circle cx="34.303" cy="735.746" r="5.07203" fill="#25356A" fill-opacity="0.35"/>
<circle cx="51.21" cy="735.746" r="5.07203" fill="#25356A" fill-opacity="0.35"/>
<circle cx="68.1167" cy="735.746" r="5.07203" fill="#25356A" fill-opacity="0.35"/>
<circle cx="85.0235" cy="735.746" r="5.07203" fill="#25356A" fill-opacity="0.35"/>
<circle cx="101.93" cy="735.746" r="5.07203" fill="#25356A" fill-opacity="0.35"/>
<circle cx="118.837" cy="735.746" r="5.07203" fill="#25356A" fill-opacity="0.35"/>
<circle cx="135.744" cy="735.746" r="5.07203" fill="#25356A" fill-opacity="0.35"/>
<circle cx="152.651" cy="735.746" r="5.07203" fill="#25356A" fill-opacity="0.35"/>
<circle cx="169.557" cy="735.746" r="5.07203" fill="#25356A" fill-opacity="0.35"/>
<circle cx="186.464" cy="735.746" r="5.07203" fill="#25356A" fill-opacity="0.35"/>
<circle cx="203.371" cy="735.746" r="5.07203" fill="#25356A" fill-opacity="0.35"/>
<circle cx="220.278" cy="735.746" r="5.07203" fill="#25356A" fill-opacity="0.35"/>
<circle cx="237.184" cy="735.746" r="5.07203" fill="#25356A" fill-opacity="0.35"/>
<circle cx="254.091" cy="735.746" r="5.07203" fill="#25356A" fill-opacity="0.35"/>
<circle cx="270.998" cy="735.746" r="5.07203" fill="#25356A" fill-opacity="0.35"/>
<circle cx="287.905" cy="735.746" r="5.07203" fill="#25356A" fill-opacity="0.35"/>
<circle cx="304.812" cy="735.746" r="5.07203" fill="#25356A" fill-opacity="0.35"/>
<circle cx="0.489514" cy="752.653" r="5.07203" fill="#25356A" fill-opacity="0.35"/>
<circle cx="17.3963" cy="752.653" r="5.07203" fill="#25356A" fill-opacity="0.35"/>
<circle cx="34.303" cy="752.653" r="5.07203" fill="#25356A" fill-opacity="0.35"/>
<circle cx="51.21" cy="752.653" r="5.07203" fill="#25356A" fill-opacity="0.35"/>
<circle cx="68.1167" cy="752.653" r="5.07203" fill="#25356A" fill-opacity="0.35"/>
<circle cx="85.0235" cy="752.653" r="5.07203" fill="#25356A" fill-opacity="0.35"/>
<circle cx="101.93" cy="752.653" r="5.07203" fill="#25356A" fill-opacity="0.35"/>
<circle cx="118.837" cy="752.653" r="5.07203" fill="#25356A" fill-opacity="0.35"/>
<circle cx="135.744" cy="752.653" r="5.07203" fill="#25356A" fill-opacity="0.35"/>
<circle cx="152.651" cy="752.653" r="5.07203" fill="#25356A" fill-opacity="0.35"/>
<circle cx="169.557" cy="752.653" r="5.07203" fill="#25356A" fill-opacity="0.35"/>
<circle cx="186.464" cy="752.653" r="5.07203" fill="#25356A" fill-opacity="0.35"/>
<circle cx="203.371" cy="752.653" r="5.07203" fill="#25356A" fill-opacity="0.35"/>
<circle cx="220.278" cy="752.653" r="5.07203" fill="#25356A" fill-opacity="0.35"/>
<circle cx="237.184" cy="752.653" r="5.07203" fill="#25356A" fill-opacity="0.35"/>
<circle cx="254.091" cy="752.653" r="5.07203" fill="#25356A" fill-opacity="0.35"/>
<circle cx="270.998" cy="752.653" r="5.07203" fill="#25356A" fill-opacity="0.35"/>
<circle cx="287.905" cy="752.653" r="5.07203" fill="#25356A" fill-opacity="0.35"/>
<circle cx="304.812" cy="752.653" r="5.07203" fill="#25356A" fill-opacity="0.35"/>
<circle cx="321.718" cy="752.653" r="5.07203" fill="#25356A" fill-opacity="0.35"/>
<circle cx="0.489514" cy="769.56" r="5.07203" fill="#25356A" fill-opacity="0.35"/>
<circle cx="17.3963" cy="769.56" r="5.07203" fill="#25356A" fill-opacity="0.35"/>
<circle cx="34.303" cy="769.56" r="5.07203" fill="#25356A" fill-opacity="0.35"/>
<circle cx="51.21" cy="769.56" r="5.07203" fill="#25356A" fill-opacity="0.35"/>
<circle cx="68.1167" cy="769.56" r="5.07203" fill="#25356A" fill-opacity="0.35"/>
<circle cx="85.0235" cy="769.56" r="5.07203" fill="#25356A" fill-opacity="0.35"/>
<circle cx="101.93" cy="769.56" r="5.07203" fill="#25356A" fill-opacity="0.35"/>
<circle cx="118.837" cy="769.56" r="5.07203" fill="#25356A" fill-opacity="0.35"/>
<circle cx="135.744" cy="769.56" r="5.07203" fill="#25356A" fill-opacity="0.35"/>
<circle cx="152.651" cy="769.56" r="5.07203" fill="#25356A" fill-opacity="0.35"/>
<circle cx="169.557" cy="769.56" r="5.07203" fill="#25356A" fill-opacity="0.35"/>
<circle cx="186.464" cy="769.56" r="5.07203" fill="#25356A" fill-opacity="0.35"/>
<circle cx="203.371" cy="769.56" r="5.07203" fill="#25356A" fill-opacity="0.35"/>
<circle cx="220.278" cy="769.56" r="5.07203" fill="#25356A" fill-opacity="0.35"/>
<circle cx="237.184" cy="769.56" r="5.07203" fill="#25356A" fill-opacity="0.35"/>
<circle cx="254.091" cy="769.56" r="5.07203" fill="#25356A" fill-opacity="0.35"/>
<circle cx="270.998" cy="769.56" r="5.07203" fill="#25356A" fill-opacity="0.35"/>
<circle cx="287.905" cy="769.56" r="5.07203" fill="#25356A" fill-opacity="0.35"/>
<circle cx="304.812" cy="769.56" r="5.07203" fill="#25356A" fill-opacity="0.35"/>
<circle cx="0.489514" cy="786.467" r="5.07203" fill="#25356A" fill-opacity="0.35"/>
<circle cx="17.3963" cy="786.467" r="5.07203" fill="#25356A" fill-opacity="0.35"/>
<circle cx="34.303" cy="786.467" r="5.07203" fill="#25356A" fill-opacity="0.35"/>
<circle cx="51.21" cy="786.467" r="5.07203" fill="#25356A" fill-opacity="0.35"/>
<circle cx="68.1167" cy="786.467" r="5.07203" fill="#25356A" fill-opacity="0.35"/>
<circle cx="85.0235" cy="786.467" r="5.07203" fill="#25356A" fill-opacity="0.35"/>
<circle cx="101.93" cy="786.467" r="5.07203" fill="#25356A" fill-opacity="0.35"/>
<circle cx="118.837" cy="786.467" r="5.07203" fill="#25356A" fill-opacity="0.35"/>
<circle cx="135.744" cy="786.467" r="5.07203" fill="#25356A" fill-opacity="0.35"/>
<circle cx="152.651" cy="786.467" r="5.07203" fill="#25356A" fill-opacity="0.35"/>
<circle cx="169.557" cy="786.467" r="5.07203" fill="#25356A" fill-opacity="0.35"/>
<circle cx="186.464" cy="786.467" r="5.07203" fill="#25356A" fill-opacity="0.35"/>
<circle cx="203.371" cy="786.467" r="5.07203" fill="#25356A" fill-opacity="0.35"/>
<circle cx="220.278" cy="786.467" r="5.07203" fill="#25356A" fill-opacity="0.35"/>
<circle cx="237.184" cy="786.467" r="5.07203" fill="#25356A" fill-opacity="0.35"/>
<circle cx="254.091" cy="786.467" r="5.07203" fill="#25356A" fill-opacity="0.35"/>
<circle cx="270.998" cy="786.467" r="5.07203" fill="#25356A" fill-opacity="0.35"/>
<circle cx="287.905" cy="786.467" r="5.07203" fill="#25356A" fill-opacity="0.35"/>
<circle cx="304.812" cy="786.467" r="5.07203" fill="#25356A" fill-opacity="0.35"/>
<circle cx="0.489514" cy="803.373" r="5.07203" fill="#25356A" fill-opacity="0.35"/>
<circle cx="17.3963" cy="803.373" r="5.07203" fill="#25356A" fill-opacity="0.35"/>
<circle cx="34.303" cy="803.373" r="5.07203" fill="#25356A" fill-opacity="0.35"/>
<circle cx="51.21" cy="803.373" r="5.07203" fill="#25356A" fill-opacity="0.35"/>
<circle cx="68.1167" cy="803.373" r="5.07203" fill="#25356A" fill-opacity="0.35"/>
<circle cx="85.0235" cy="803.373" r="5.07203" fill="#25356A" fill-opacity="0.35"/>
<circle cx="101.93" cy="803.373" r="5.07203" fill="#25356A" fill-opacity="0.35"/>
<circle cx="118.837" cy="803.373" r="5.07203" fill="#25356A" fill-opacity="0.35"/>
<circle cx="135.744" cy="803.373" r="5.07203" fill="#25356A" fill-opacity="0.35"/>
<circle cx="152.651" cy="803.373" r="5.07203" fill="#25356A" fill-opacity="0.35"/>
<circle cx="169.557" cy="803.373" r="5.07203" fill="#25356A" fill-opacity="0.35"/>
<circle cx="186.464" cy="803.373" r="5.07203" fill="#25356A" fill-opacity="0.35"/>
<circle cx="203.371" cy="803.373" r="5.07203" fill="#25356A" fill-opacity="0.35"/>
<circle cx="220.278" cy="803.373" r="5.07203" fill="#25356A" fill-opacity="0.35"/>
<circle cx="237.184" cy="803.373" r="5.07203" fill="#25356A" fill-opacity="0.35"/>
<circle cx="254.091" cy="803.373" r="5.07203" fill="#25356A" fill-opacity="0.35"/>
<circle cx="270.998" cy="803.373" r="5.07203" fill="#25356A" fill-opacity="0.35"/>
<circle cx="287.905" cy="803.373" r="5.07203" fill="#25356A" fill-opacity="0.35"/>
<circle cx="304.812" cy="803.373" r="5.07203" fill="#25356A" fill-opacity="0.35"/>
<circle cx="321.718" cy="803.373" r="5.07203" fill="#25356A" fill-opacity="0.35"/>
<circle cx="0.489514" cy="820.28" r="5.07203" fill="#25356A" fill-opacity="0.35"/>
<circle cx="17.3963" cy="820.28" r="5.07203" fill="#25356A" fill-opacity="0.35"/>
<circle cx="34.303" cy="820.28" r="5.07203" fill="#25356A" fill-opacity="0.35"/>
<circle cx="51.21" cy="820.28" r="5.07203" fill="#25356A" fill-opacity="0.35"/>
<circle cx="68.1167" cy="820.28" r="5.07203" fill="#25356A" fill-opacity="0.35"/>
<circle cx="85.0235" cy="820.28" r="5.07203" fill="#25356A" fill-opacity="0.35"/>
<circle cx="101.93" cy="820.28" r="5.07203" fill="#25356A" fill-opacity="0.35"/>
<circle cx="118.837" cy="820.28" r="5.07203" fill="#25356A" fill-opacity="0.35"/>
<circle cx="135.744" cy="820.28" r="5.07203" fill="#25356A" fill-opacity="0.35"/>
<circle cx="152.651" cy="820.28" r="5.07203" fill="#25356A" fill-opacity="0.35"/>
<circle cx="169.557" cy="820.28" r="5.07203" fill="#25356A" fill-opacity="0.35"/>
<circle cx="186.464" cy="820.28" r="5.07203" fill="#25356A" fill-opacity="0.35"/>
<circle cx="203.371" cy="820.28" r="5.07203" fill="#25356A" fill-opacity="0.35"/>
<circle cx="220.278" cy="820.28" r="5.07203" fill="#25356A" fill-opacity="0.35"/>
<circle cx="237.184" cy="820.28" r="5.07203" fill="#25356A" fill-opacity="0.35"/>
<circle cx="254.091" cy="820.28" r="5.07203" fill="#25356A" fill-opacity="0.35"/>
<circle cx="270.998" cy="820.28" r="5.07203" fill="#25356A" fill-opacity="0.35"/>
<circle cx="287.905" cy="820.28" r="5.07203" fill="#25356A" fill-opacity="0.35"/>
<circle cx="304.812" cy="820.28" r="5.07203" fill="#25356A" fill-opacity="0.35"/>
<circle cx="321.718" cy="820.28" r="5.07203" fill="#25356A" fill-opacity="0.35"/>
<circle cx="0.489514" cy="837.187" r="5.07203" fill="#25356A" fill-opacity="0.35"/>
<circle cx="17.3963" cy="837.187" r="5.07203" fill="#25356A" fill-opacity="0.35"/>
<circle cx="34.303" cy="837.187" r="5.07203" fill="#25356A" fill-opacity="0.35"/>
<circle cx="51.21" cy="837.187" r="5.07203" fill="#25356A" fill-opacity="0.35"/>
<circle cx="68.1167" cy="837.187" r="5.07203" fill="#25356A" fill-opacity="0.35"/>
<circle cx="85.0235" cy="837.187" r="5.07203" fill="#25356A" fill-opacity="0.35"/>
<circle cx="101.93" cy="837.187" r="5.07203" fill="#25356A" fill-opacity="0.35"/>
<circle cx="118.837" cy="837.187" r="5.07203" fill="#25356A" fill-opacity="0.35"/>
<circle cx="135.744" cy="837.187" r="5.07203" fill="#25356A" fill-opacity="0.35"/>
<circle cx="152.651" cy="837.187" r="5.07203" fill="#25356A" fill-opacity="0.35"/>
<circle cx="169.557" cy="837.187" r="5.07203" fill="#25356A" fill-opacity="0.35"/>
<circle cx="186.464" cy="837.187" r="5.07203" fill="#25356A" fill-opacity="0.35"/>
<circle cx="203.371" cy="837.187" r="5.07203" fill="#25356A" fill-opacity="0.35"/>
<circle cx="220.278" cy="837.187" r="5.07203" fill="#25356A" fill-opacity="0.35"/>
<circle cx="237.184" cy="837.187" r="5.07203" fill="#25356A" fill-opacity="0.35"/>
<circle cx="254.091" cy="837.187" r="5.07203" fill="#25356A" fill-opacity="0.35"/>
<circle cx="270.998" cy="837.187" r="5.07203" fill="#25356A" fill-opacity="0.35"/>
<circle cx="287.905" cy="837.187" r="5.07203" fill="#25356A" fill-opacity="0.35"/>
<circle cx="304.812" cy="837.187" r="5.07203" fill="#25356A" fill-opacity="0.35"/>
<circle cx="321.718" cy="837.187" r="5.07203" fill="#25356A" fill-opacity="0.35"/>
<circle cx="0.489514" cy="854.094" r="5.07203" fill="#25356A" fill-opacity="0.35"/>
<circle cx="17.3963" cy="854.094" r="5.07203" fill="#25356A" fill-opacity="0.35"/>
<circle cx="34.303" cy="854.094" r="5.07203" fill="#25356A" fill-opacity="0.35"/>
<circle cx="51.21" cy="854.094" r="5.07203" fill="#25356A" fill-opacity="0.35"/>
<circle cx="68.1167" cy="854.094" r="5.07203" fill="#25356A" fill-opacity="0.35"/>
<circle cx="85.0235" cy="854.094" r="5.07203" fill="#25356A" fill-opacity="0.35"/>
<circle cx="101.93" cy="854.094" r="5.07203" fill="#25356A" fill-opacity="0.35"/>
<circle cx="118.837" cy="854.094" r="5.07203" fill="#25356A" fill-opacity="0.35"/>
<circle cx="135.744" cy="854.094" r="5.07203" fill="#25356A" fill-opacity="0.35"/>
<circle cx="152.651" cy="854.094" r="5.07203" fill="#25356A" fill-opacity="0.35"/>
<circle cx="169.557" cy="854.094" r="5.07203" fill="#25356A" fill-opacity="0.35"/>
<circle cx="186.464" cy="854.094" r="5.07203" fill="#25356A" fill-opacity="0.35"/>
<circle cx="203.371" cy="854.094" r="5.07203" fill="#25356A" fill-opacity="0.35"/>
<circle cx="220.278" cy="854.094" r="5.07203" fill="#25356A" fill-opacity="0.35"/>
<circle cx="237.184" cy="854.094" r="5.07203" fill="#25356A" fill-opacity="0.35"/>
<circle cx="254.091" cy="854.094" r="5.07203" fill="#25356A" fill-opacity="0.35"/>
<circle cx="270.998" cy="854.094" r="5.07203" fill="#25356A" fill-opacity="0.35"/>
<circle cx="287.905" cy="854.094" r="5.07203" fill="#25356A" fill-opacity="0.35"/>
<circle cx="304.812" cy="854.094" r="5.07203" fill="#25356A" fill-opacity="0.35"/>
<circle cx="321.718" cy="854.094" r="5.07203" fill="#25356A" fill-opacity="0.35"/>
<circle cx="0.489514" cy="871.001" r="5.07203" fill="#25356A" fill-opacity="0.35"/>
<circle cx="17.3963" cy="871.001" r="5.07203" fill="#25356A" fill-opacity="0.35"/>
<circle cx="34.303" cy="871.001" r="5.07203" fill="#25356A" fill-opacity="0.35"/>
<circle cx="51.21" cy="871.001" r="5.07203" fill="#25356A" fill-opacity="0.35"/>
<circle cx="68.1167" cy="871.001" r="5.07203" fill="#25356A" fill-opacity="0.35"/>
<circle cx="85.0235" cy="871.001" r="5.07203" fill="#25356A" fill-opacity="0.35"/>
<circle cx="101.93" cy="871.001" r="5.07203" fill="#25356A" fill-opacity="0.35"/>
<circle cx="118.837" cy="871.001" r="5.07203" fill="#25356A" fill-opacity="0.35"/>
<circle cx="135.744" cy="871.001" r="5.07203" fill="#25356A" fill-opacity="0.35"/>
<circle cx="152.651" cy="871.001" r="5.07203" fill="#25356A" fill-opacity="0.35"/>
<circle cx="169.557" cy="871.001" r="5.07203" fill="#25356A" fill-opacity="0.35"/>
<circle cx="186.464" cy="871.001" r="5.07203" fill="#25356A" fill-opacity="0.35"/>
<circle cx="203.371" cy="871.001" r="5.07203" fill="#25356A" fill-opacity="0.35"/>
<circle cx="220.278" cy="871.001" r="5.07203" fill="#25356A" fill-opacity="0.35"/>
<circle cx="237.184" cy="871.001" r="5.07203" fill="#25356A" fill-opacity="0.35"/>
<circle cx="254.091" cy="871.001" r="5.07203" fill="#25356A" fill-opacity="0.35"/>
<circle cx="270.998" cy="871.001" r="5.07203" fill="#25356A" fill-opacity="0.35"/>
<circle cx="287.905" cy="871.001" r="5.07203" fill="#25356A" fill-opacity="0.35"/>
<circle cx="304.812" cy="871.001" r="5.07203" fill="#25356A" fill-opacity="0.35"/>
<circle cx="321.718" cy="871.001" r="5.07203" fill="#25356A" fill-opacity="0.35"/>
<circle cx="0.489514" cy="887.907" r="5.07203" fill="#25356A" fill-opacity="0.35"/>
<circle cx="17.3963" cy="887.907" r="5.07203" fill="#25356A" fill-opacity="0.35"/>
<circle cx="34.303" cy="887.907" r="5.07203" fill="#25356A" fill-opacity="0.35"/>
<circle cx="51.21" cy="887.907" r="5.07203" fill="#25356A" fill-opacity="0.35"/>
<circle cx="68.1167" cy="887.907" r="5.07203" fill="#25356A" fill-opacity="0.35"/>
<circle cx="85.0235" cy="887.907" r="5.07203" fill="#25356A" fill-opacity="0.35"/>
<circle cx="101.93" cy="887.907" r="5.07203" fill="#25356A" fill-opacity="0.35"/>
<circle cx="118.837" cy="887.907" r="5.07203" fill="#25356A" fill-opacity="0.35"/>
<circle cx="135.744" cy="887.907" r="5.07203" fill="#25356A" fill-opacity="0.35"/>
<circle cx="152.651" cy="887.907" r="5.07203" fill="#25356A" fill-opacity="0.35"/>
<circle cx="169.557" cy="887.907" r="5.07203" fill="#25356A" fill-opacity="0.35"/>
<circle cx="186.464" cy="887.907" r="5.07203" fill="#25356A" fill-opacity="0.35"/>
<circle cx="203.371" cy="887.907" r="5.07203" fill="#25356A" fill-opacity="0.35"/>
<circle cx="220.278" cy="887.907" r="5.07203" fill="#25356A" fill-opacity="0.35"/>
<circle cx="237.184" cy="887.907" r="5.07203" fill="#25356A" fill-opacity="0.35"/>
<circle cx="254.091" cy="887.907" r="5.07203" fill="#25356A" fill-opacity="0.35"/>
<circle cx="270.998" cy="887.907" r="5.07203" fill="#25356A" fill-opacity="0.35"/>
<circle cx="287.905" cy="887.907" r="5.07203" fill="#25356A" fill-opacity="0.35"/>
<circle cx="304.812" cy="887.907" r="5.07203" fill="#25356A" fill-opacity="0.35"/>
<circle cx="321.718" cy="887.907" r="5.07203" fill="#25356A" fill-opacity="0.35"/>
<circle cx="0.489514" cy="904.814" r="5.07203" fill="#25356A" fill-opacity="0.35"/>
<circle cx="17.3963" cy="904.814" r="5.07203" fill="#25356A" fill-opacity="0.35"/>
<circle cx="34.303" cy="904.814" r="5.07203" fill="#25356A" fill-opacity="0.35"/>
<circle cx="51.21" cy="904.814" r="5.07203" fill="#25356A" fill-opacity="0.35"/>
<circle cx="68.1167" cy="904.814" r="5.07203" fill="#25356A" fill-opacity="0.35"/>
<circle cx="85.0235" cy="904.814" r="5.07203" fill="#25356A" fill-opacity="0.35"/>
<circle cx="101.93" cy="904.814" r="5.07203" fill="#25356A" fill-opacity="0.35"/>
<circle cx="118.837" cy="904.814" r="5.07203" fill="#25356A" fill-opacity="0.35"/>
<circle cx="135.744" cy="904.814" r="5.07203" fill="#25356A" fill-opacity="0.35"/>
<circle cx="152.651" cy="904.814" r="5.07203" fill="#25356A" fill-opacity="0.35"/>
<circle cx="169.557" cy="904.814" r="5.07203" fill="#25356A" fill-opacity="0.35"/>
<circle cx="186.464" cy="904.814" r="5.07203" fill="#25356A" fill-opacity="0.35"/>
<circle cx="203.371" cy="904.814" r="5.07203" fill="#25356A" fill-opacity="0.35"/>
<circle cx="220.278" cy="904.814" r="5.07203" fill="#25356A" fill-opacity="0.35"/>
<circle cx="237.184" cy="904.814" r="5.07203" fill="#25356A" fill-opacity="0.35"/>
<circle cx="254.091" cy="904.814" r="5.07203" fill="#25356A" fill-opacity="0.35"/>
<circle cx="270.998" cy="904.814" r="5.07203" fill="#25356A" fill-opacity="0.35"/>
<circle cx="287.905" cy="904.814" r="5.07203" fill="#25356A" fill-opacity="0.35"/>
<circle cx="304.812" cy="904.814" r="5.07203" fill="#25356A" fill-opacity="0.35"/>
<circle cx="321.718" cy="904.814" r="5.07203" fill="#25356A" fill-opacity="0.35"/>
<circle cx="0.489514" cy="921.721" r="5.07203" fill="#25356A" fill-opacity="0.35"/>
<circle cx="17.3963" cy="921.721" r="5.07203" fill="#25356A" fill-opacity="0.35"/>
<circle cx="34.303" cy="921.721" r="5.07203" fill="#25356A" fill-opacity="0.35"/>
<circle cx="51.21" cy="921.721" r="5.07203" fill="#25356A" fill-opacity="0.35"/>
<circle cx="68.1167" cy="921.721" r="5.07203" fill="#25356A" fill-opacity="0.35"/>
<circle cx="85.0235" cy="921.721" r="5.07203" fill="#25356A" fill-opacity="0.35"/>
<circle cx="101.93" cy="921.721" r="5.07203" fill="#25356A" fill-opacity="0.35"/>
<circle cx="118.837" cy="921.721" r="5.07203" fill="#25356A" fill-opacity="0.35"/>
<circle cx="135.744" cy="921.721" r="5.07203" fill="#25356A" fill-opacity="0.35"/>
<circle cx="152.651" cy="921.721" r="5.07203" fill="#25356A" fill-opacity="0.35"/>
<circle cx="169.557" cy="921.721" r="5.07203" fill="#25356A" fill-opacity="0.35"/>
<circle cx="186.464" cy="921.721" r="5.07203" fill="#25356A" fill-opacity="0.35"/>
<circle cx="203.371" cy="921.721" r="5.07203" fill="#25356A" fill-opacity="0.35"/>
<circle cx="220.278" cy="921.721" r="5.07203" fill="#25356A" fill-opacity="0.35"/>
<circle cx="237.184" cy="921.721" r="5.07203" fill="#25356A" fill-opacity="0.35"/>
<circle cx="254.091" cy="921.721" r="5.07203" fill="#25356A" fill-opacity="0.35"/>
<circle cx="270.998" cy="921.721" r="5.07203" fill="#25356A" fill-opacity="0.35"/>
<circle cx="287.905" cy="921.721" r="5.07203" fill="#25356A" fill-opacity="0.35"/>
<circle cx="304.812" cy="921.721" r="5.07203" fill="#25356A" fill-opacity="0.35"/>
<circle cx="321.718" cy="921.721" r="5.07203" fill="#25356A" fill-opacity="0.35"/>
</g>
<g opacity="0.91" filter="url(#filter1_d)">
<path d="M282.983 723.908C40.1638 511.17 -47.1681 627.12 -54.8928 638.576C-55.3152 639.202 -55.4603 639.856 -55.4532 640.612L-53.5459 845.792C-52.1557 995.337 73.1736 1124.66 210.079 1064.47C280.308 1033.6 344.566 983.345 372.541 901.635C411.933 786.578 302.646 741.135 282.983 723.908Z" fill="#6FCF97"/>
</g>
<defs>
<filter id="filter0_d" x="-71.4197" y="560.827" width="549.293" height="595.581" filterUnits="userSpaceOnUse" color-interpolation-filters="sRGB">
<feFlood flood-opacity="0" result="BackgroundImageFix"/>
<feColorMatrix in="SourceAlpha" type="matrix" values="0 0 0 0 0 0 0 0 0 0 0 0 0 0 0 0 0 0 127 0"/>
<feOffset dx="20.4354" dy="20.4354"/>
<feGaussianBlur stdDeviation="28.2009"/>
<feColorMatrix type="matrix" values="0 0 0 0 0 0 0 0 0 0 0 0 0 0 0 0 0 0 0.04 0"/>
<feBlend mode="normal" in2="BackgroundImageFix" result="effect1_dropShadow"/>
<feBlend mode="normal" in="SourceGraphic" in2="effect1_dropShadow" result="shape"/>
</filter>
<filter id="filter1_d" x="-91.4197" y="560.827" width="549.293" height="595.581" filterUnits="userSpaceOnUse" color-interpolation-filters="sRGB">
<feFlood flood-opacity="0" result="BackgroundImageFix"/>
<feColorMatrix in="SourceAlpha" type="matrix" values="0 0 0 0 0 0 0 0 0 0 0 0 0 0 0 0 0 0 127 0"/>
<feOffset dx="20.4354" dy="20.4354"/>
<feGaussianBlur stdDeviation="28.2009"/>
<feColorMatrix type="matrix" values="0 0 0 0 0 0 0 0 0 0 0 0 0 0 0 0 0 0 0.04 0"/>
<feBlend mode="normal" in2="BackgroundImageFix" result="effect1_dropShadow"/>
<feBlend mode="normal" in="SourceGraphic" in2="effect1_dropShadow" result="shape"/>
</filter>
</defs>
</svg>
